<svg xmlns="http://www.w3.org/2000/svg" viewBox="0 0 512 512" width="512" height="512" role="img" aria-label="Rachar">
  <defs>
    <linearGradient id="g" x1="0" y1="0" x2="1" y2="1">
      <stop offset="0" stop-color="#3377f6"/>
      <stop offset="1" stop-color="#1a47b1"/>
    </linearGradient>
  </defs>
  <rect width="512" height="512" rx="96" fill="url(#g)"/>
  <g fill="#ffffff">
    <path d="M256 104c-83 0-150 38-150 85v134c0 47 67 85 150 85s150-38 150-85V189c0-47-67-85-150-85zm0 40c63 0 110 26 110 45s-47 45-110 45-110-26-110-45 47-45 110-45zm110 219c0 19-47 45-110 45s-110-26-110-45v-29c28 19 68 30 110 30s82-11 110-30zm0-67c0 19-47 45-110 45s-110-26-110-45v-29c28 19 68 30 110 30s82-11 110-30z"/>
  </g>
</svg>
